<?xml version="1.0" encoding="utf-8"?>
<!-- Generator: Adobe Illustrator 16.0.4, SVG Export Plug-In . SVG Version: 6.00 Build 0)  -->
<!DOCTYPE svg PUBLIC "-//W3C//DTD SVG 1.1//EN" "http://www.w3.org/Graphics/SVG/1.1/DTD/svg11.dtd">
<svg version="1.1" id="レイヤー_1" xmlns="http://www.w3.org/2000/svg" xmlns:xlink="http://www.w3.org/1999/xlink" x="0px"
	 y="0px" width="300px" height="120px" viewBox="0 0 300 120" enable-background="new 0 0 300 120" xml:space="preserve">
<g>
	<path fill="#231815" d="M20.958,56.647c0-0.972-0.216-11.502-0.216-11.934c0-0.594-0.36-1.296-2.16-1.296h-2.52
		c-0.432,0-0.576-0.108-0.576-0.378v-1.404c0-0.216,0.144-0.324,0.576-0.324c0.864,0,3.024,0.162,8.425,0.162
		c4.824,0,7.201-0.162,8.137-0.162c0.432,0,0.576,0.108,0.576,0.324v1.404c0,0.27-0.144,0.378-0.504,0.378h-3.024
		c-1.44,0-2.017,0.378-2.017,1.674c0,0.81-0.216,9.234-0.216,11.88v2.7h1.296c1.152,0,1.944-0.216,2.953-0.756
		c1.584-0.864,14.905-13.608,15.553-14.31c0.648-0.756,0.288-1.296-0.648-1.296h-1.008c-0.288,0-0.36-0.108-0.36-0.378v-1.242
		c0-0.27,0.144-0.378,0.432-0.378c0.864,0,3.816,0.162,7.128,0.162c2.088,0,4.608-0.162,5.473-0.162c0.36,0,0.504,0.108,0.504,0.27
		v1.458c0,0.27-0.216,0.378-0.576,0.378h-1.512c-1.008,0-2.664,0.324-3.96,1.026c-2.665,1.458-13.682,11.016-16.778,14.041
		c0.648,0.594,18.65,17.334,19.298,17.928c1.224,1.134,3.312,1.35,5.041,1.35h2.52c0.36,0,0.504,0.162,0.504,0.379v1.35
		c0,0.27-0.144,0.378-0.576,0.378c-0.72,0-3.457-0.162-8.857-0.162c-5.977,0-8.785,0.162-9.793,0.162
		c-0.288,0-0.432-0.108-0.432-0.324v-1.403c0-0.217,0.144-0.324,0.432-0.324h1.08c1.368,0,1.512-0.918,1.152-1.459
		c-0.648-1.08-13.393-13.716-14.329-14.256c-1.152-0.701-2.088-0.81-3.168-0.81h-1.368v3.888c0,2.7,0.144,10.639,0.216,11.395
		c0.072,0.701,0.72,1.188,1.656,1.188h3.168c0.36,0,0.576,0.108,0.576,0.324v1.404c0,0.216-0.072,0.378-0.432,0.378
		c-0.864,0-3.024-0.162-8.137-0.162c-5.688,0-7.993,0.162-8.641,0.162c-0.36,0-0.504-0.108-0.504-0.378v-1.404
		c0-0.27,0.216-0.324,0.504-0.324h2.952c1.296,0,1.8-0.432,1.944-0.972c0.072-0.485,0.216-10.261,0.216-17.01V56.647z"/>
	<path fill="#231815" d="M71.142,64.693c-0.72,1.351-4.681,9.559-5.041,10.692c-0.072,0.378-0.216,0.919-0.216,1.188
		c0,0.756,0.864,1.188,2.448,1.188h3.384c0.504,0,0.72,0.108,0.72,0.379v1.241c0,0.378-0.216,0.486-0.576,0.486
		c-1.008,0-3.96-0.162-8.208-0.162c-5.256,0-6.841,0.162-7.849,0.162c-0.36,0-0.504-0.108-0.504-0.433v-1.295
		c0-0.271,0.288-0.379,0.576-0.379h2.521c2.16,0,3.168-0.756,4.176-2.484c0.504-0.863,5.76-10.854,7.849-15.282
		c0.504-1.08,6.336-12.69,6.984-14.148c0.216-0.54,0.576-1.242,0.072-1.836c-0.216-0.216-0.504-0.486-0.504-0.702
		c0-0.162,0.144-0.378,0.648-0.486c2.016-0.324,5.185-1.944,5.977-2.7c0.36-0.27,0.576-0.486,0.936-0.486
		c0.432,0,0.576,0.324,0.792,0.918c1.368,3.402,6.984,15.498,8.353,18.954c1.656,4.212,6.337,14.256,7.345,15.822
		c1.224,1.782,3.096,2.43,4.896,2.43h2.376c0.432,0,0.576,0.162,0.576,0.379v1.35c0,0.27-0.216,0.378-0.72,0.378
		c-1.296,0-2.809-0.162-8.641-0.162c-5.977,0-8.497,0.162-10.153,0.162c-0.36,0-0.576-0.162-0.576-0.486v-1.241
		c0-0.324,0.216-0.379,0.648-0.379h1.8c2.017,0,2.665-0.539,2.16-2.052c-0.576-1.944-3.528-8.856-4.536-11.017H71.142z
		 M87.991,62.75c-0.648-1.62-6.48-15.121-6.84-15.931c-0.216-0.378-0.36-0.756-0.576-0.756c-0.288,0-0.576,0.378-0.792,0.81
		c-0.36,0.702-7.201,14.527-7.705,15.876H87.991z"/>
	<path fill="#231815" d="M111.605,56.216c0-1.998-0.144-8.586-0.216-9.558c-0.216-3.132-1.368-3.24-4.68-3.24h-2.232
		c-0.432,0-0.576-0.108-0.576-0.378v-1.35c0-0.27,0.144-0.378,0.576-0.378c1.152,0,4.393,0.162,9.577,0.162
		c2.304,0,6.625-0.162,9.145-0.162c5.617,0,10.225,0.378,12.745,1.458c4.104,1.674,5.544,4.158,5.544,7.344
		c0,5.346-3.168,6.696-8.785,8.91l0.216,0.108c6.985,1.728,11.665,4.968,11.665,10.692c0,2.754-2.232,6.533-5.544,8.1
		c-3.024,1.404-7.128,1.944-13.753,1.944c-4.969,0-7.777-0.162-10.801-0.162c-3.6,0-7.849,0.162-9.217,0.162
		c-0.864,0-1.008-0.108-1.008-0.324v-1.403c0-0.271,0.144-0.379,0.648-0.379h3.457c2.232,0,2.592-0.647,2.88-2.376
		c0.216-1.241,0.36-8.37,0.36-12.798V56.216z M117.941,58.322c1.368,0.108,2.592,0.108,3.816,0.108c4.104,0,7.345-0.486,9.073-1.404
		c2.952-1.674,4.032-4.104,4.032-6.48c0-2.052-0.864-4.212-3.528-5.67c-2.592-1.35-6.192-1.836-9.865-1.836
		c-1.008,0-1.8-0.054-2.376,0.054c-0.576,0.108-1.008,0.486-1.008,0.972c-0.072,1.08-0.144,5.778-0.144,10.26V58.322z
		 M117.941,63.506v7.452c0,4.968,1.584,7.183,7.561,7.183c6.049,0,11.593-2.16,11.593-8.587c0-4.374-2.953-7.235-7.201-8.478
		c-2.952-0.864-6.336-0.918-9.649-0.918h-2.304V63.506z"/>
	<path fill="#231815" d="M158.908,79.382c-4.896-1.458-7.416-3.834-8.569-7.235c-0.864-2.431-1.152-6.049-1.152-13.123V46.171
		c0-1.89-0.504-2.754-2.736-2.754h-17.113c-0.432,0-0.504-0.108-0.504-0.486l-4.916-1.188c0-0.324,0.072-0.432,0.648-0.432
		c0.72,0,22.894,0.162,28.51,0.162c5.616,0,9.072-0.162,9.864-0.162c0.576,0,0.648,0.108,0.648,0.324v1.404
		c0,0.27-0.072,0.378-0.576,0.378h-3.601c-2.088,0-3.312,1.026-3.456,2.214c-0.072,0.486-0.144,4.266-0.144,7.021v3.564
		c0,2.862,0.287,9.72,0.359,11.448c0.072,2.484,0.648,5.021,2.305,6.857c2.664,2.916,7.272,3.889,11.449,3.889
		c4.104,0,8.28-1.026,10.801-2.971c2.808-2.268,3.744-5.508,3.744-9.504V54.38c0-4.104-0.145-7.236-0.36-8.586
		c-0.216-1.404-1.368-2.376-3.24-2.376h-3.169c-0.432,0-0.504-0.162-0.504-0.432v-1.296c0-0.27,0.072-0.378,0.505-0.378
		c0.72,0,4.032,0.162,8.856,0.162c4.969,0,7.273-0.162,7.921-0.162s0.72,0.216,0.72,0.378v1.188c0,0.324-0.072,0.54-0.432,0.54
		h-2.953c-2.664,0-2.879,1.512-3.096,2.16c-0.145,0.54-0.145,8.208-0.145,8.964c0,0.756-0.144,10.207-0.359,12.312
		c-0.432,4.428-2.016,7.83-6.049,10.422c-2.88,1.998-7.272,3.24-13.537,3.24C164.885,80.516,161.285,80.139,158.908,79.382z"/>
	<path fill="#231815" d="M198.507,55.136c0-3.996,0-7.452-0.071-9.018c-0.072-1.782-0.937-2.7-2.736-2.7h-2.881
		c-0.359,0-0.432-0.162-0.432-0.378v-1.35c0-0.27,0.072-0.378,0.432-0.378c0.648,0,2.881,0.162,8.929,0.162
		c4.032,0,10.729-0.162,12.025-0.162c5.976,0,10.729,1.35,13.465,3.294c2.376,1.728,3.745,4.158,3.745,6.156
		c0,6.75-4.105,9.288-13.322,10.8v0.108c1.729,0.486,2.736,1.458,3.312,2.052c0.864,0.702,5.977,6.21,6.553,6.912
		c0.359,0.54,4.969,5.454,6.336,6.21c1.513,0.811,3.169,0.918,5.186,0.918c0.504,0,0.576,0.217,0.576,0.432v1.188
		c0,0.324-0.072,0.486-0.576,0.486c-0.576,0-2.449-0.162-5.617-0.162c-2.088,0-4.752,0.108-5.832,0.162
		c-0.793-0.54-2.377-2.376-3.024-3.078c-0.576-0.647-4.464-5.778-4.825-6.21c-0.287-0.378-3.744-4.266-4.607-5.022
		c-1.873-1.674-3.601-3.132-7.777-3.132c-0.647,0-1.367,0-2.376,0.162v3.023c0,3.187,0.072,9.234,0.144,10.045
		c0.145,1.134,0.721,2.105,1.801,2.105h4.537c0.504,0,0.575,0.162,0.575,0.432v1.188c0,0.378-0.071,0.486-0.792,0.486
		c-0.792,0-2.592-0.162-9.433-0.162c-6.553,0-8.209,0.162-9.001,0.162c-0.576,0-0.576-0.162-0.576-0.433v-1.242
		c0-0.27,0-0.432,0.36-0.432h2.952c1.584,0,2.809-0.378,2.809-1.836c0.144-5.346,0.144-10.422,0.144-15.552V55.136z M204.987,60.482
		c1.08,0.162,1.872,0.216,3.24,0.216c13.105,0,15.626-6.75,15.626-9.018c0-2.484-1.513-4.86-3.601-6.156
		c-2.809-1.674-5.977-2.484-11.953-2.484c-0.864,0-1.8,0.108-2.448,0.432c-0.504,0.27-0.864,0.864-0.864,1.728V60.482z"/>
	<path fill="#231815" d="M247.25,64.693c-0.72,1.351-4.68,9.559-5.04,10.692c-0.072,0.378-0.216,0.919-0.216,1.188
		c0,0.756,0.863,1.188,2.447,1.188h3.385c0.504,0,0.721,0.108,0.721,0.379v1.241c0,0.378-0.217,0.486-0.576,0.486
		c-1.008,0-3.961-0.162-8.209-0.162c-5.256,0-6.841,0.162-7.849,0.162c-0.36,0-0.504-0.108-0.504-0.433v-1.295
		c0-0.271,0.288-0.379,0.575-0.379h2.521c2.16,0,3.168-0.756,4.176-2.484c0.504-0.863,5.76-10.854,7.849-15.282
		c0.504-1.08,6.337-12.69,6.984-14.148c0.216-0.54,0.576-1.242,0.072-1.836c-0.216-0.216-0.504-0.486-0.504-0.702
		c0-0.162,0.144-0.378,0.647-0.486c2.017-0.324,5.186-1.944,5.977-2.7c0.36-0.27,0.576-0.486,0.937-0.486
		c0.433,0,0.576,0.324,0.792,0.918c1.368,3.402,6.984,15.498,8.353,18.954c1.656,4.212,6.337,14.256,7.345,15.822
		c1.225,1.782,3.096,2.43,4.896,2.43h2.377c0.432,0,0.575,0.162,0.575,0.379v1.35c0,0.27-0.216,0.378-0.72,0.378
		c-1.297,0-2.809-0.162-8.641-0.162c-5.977,0-8.497,0.162-10.153,0.162c-0.36,0-0.575-0.162-0.575-0.486v-1.241
		c0-0.324,0.215-0.379,0.647-0.379h1.8c2.017,0,2.664-0.539,2.16-2.052c-0.576-1.944-3.527-8.856-4.536-11.017H247.25z M264.1,62.75
		c-0.648-1.62-6.48-15.121-6.84-15.931c-0.217-0.378-0.361-0.756-0.576-0.756c-0.289,0-0.576,0.378-0.793,0.81
		c-0.359,0.702-7.2,14.527-7.704,15.876H264.1z"/>
</g>
</svg>
